# Blender 5.1.2
# www.blender.org
mtllib EQ_07_INSPECTION.mtl
o GAUGE_MainHeader
v 18.000000 22.475000 2.580000
v 18.000000 22.425001 2.580000
v 18.030615 22.475000 2.573910
v 18.030615 22.425001 2.573910
v 18.056568 22.475000 2.556569
v 18.056568 22.425001 2.556569
v 18.073910 22.475000 2.530615
v 18.073910 22.425001 2.530615
v 18.080000 22.475000 2.500000
v 18.080000 22.425001 2.500000
v 18.073910 22.475000 2.469385
v 18.073910 22.425001 2.469385
v 18.056568 22.475000 2.443431
v 18.056568 22.425001 2.443431
v 18.030615 22.475000 2.426090
v 18.030615 22.425001 2.426090
v 18.000000 22.475000 2.420000
v 18.000000 22.425001 2.420000
v 17.969385 22.475000 2.426090
v 17.969385 22.425001 2.426090
v 17.943432 22.475000 2.443431
v 17.943432 22.425001 2.443431
v 17.926090 22.475000 2.469385
v 17.926090 22.425001 2.469385
v 17.920000 22.475000 2.500000
v 17.920000 22.425001 2.500000
v 17.926090 22.475000 2.530615
v 17.926090 22.425001 2.530615
v 17.943432 22.475000 2.556569
v 17.943432 22.425001 2.556569
v 17.969385 22.475000 2.573910
v 17.969385 22.425001 2.573910
vn 0.1951 -0.0000 0.9808
vn 0.5556 -0.0000 0.8315
vn 0.8315 -0.0000 0.5556
vn 0.9808 -0.0000 0.1951
vn 0.9808 -0.0000 -0.1951
vn 0.8315 -0.0000 -0.5556
vn 0.5556 -0.0000 -0.8315
vn 0.1951 -0.0000 -0.9808
vn -0.1951 -0.0000 -0.9808
vn -0.5556 -0.0000 -0.8315
vn -0.8315 -0.0000 -0.5556
vn -0.9808 -0.0000 -0.1951
vn -0.9808 -0.0000 0.1951
vn -0.8315 -0.0000 0.5556
vn -0.0000 -1.0000 -0.0000
vn -0.5556 -0.0000 0.8315
vn -0.1951 -0.0000 0.9808
vn -0.0000 1.0000 -0.0000
s 0
usemtl MAT_GaugeBody
f 1//1 2//1 4//1 3//1
f 3//2 4//2 6//2 5//2
f 5//3 6//3 8//3 7//3
f 7//4 8//4 10//4 9//4
f 9//5 10//5 12//5 11//5
f 11//6 12//6 14//6 13//6
f 13//7 14//7 16//7 15//7
f 15//8 16//8 18//8 17//8
f 17//9 18//9 20//9 19//9
f 19//10 20//10 22//10 21//10
f 21//11 22//11 24//11 23//11
f 23//12 24//12 26//12 25//12
f 25//13 26//13 28//13 27//13
f 27//14 28//14 30//14 29//14
f 4//15 2//15 32//15 30//15 28//15 26//15 24//15 22//15 20//15 18//15 16//15 14//15 12//15 10//15 8//15 6//15
f 29//16 30//16 32//16 31//16
f 31//17 32//17 2//17 1//17
f 1//18 3//18 5//18 7//18 9//18 11//18 13//18 15//18 17//18 19//18 21//18 23//18 25//18 27//18 29//18 31//18
o GAUGE_MainHeader_Face
v 18.000000 22.426502 2.570000
v 18.000000 22.421501 2.570000
v 18.026789 22.426502 2.564672
v 18.026789 22.421501 2.564672
v 18.049498 22.426502 2.549497
v 18.049498 22.421501 2.549497
v 18.064672 22.426502 2.526788
v 18.064672 22.421501 2.526788
v 18.070000 22.426502 2.500000
v 18.070000 22.421501 2.500000
v 18.064672 22.426502 2.473212
v 18.064672 22.421501 2.473212
v 18.049498 22.426502 2.450503
v 18.049498 22.421501 2.450503
v 18.026789 22.426502 2.435328
v 18.026789 22.421501 2.435328
v 18.000000 22.426502 2.430000
v 18.000000 22.421501 2.430000
v 17.973211 22.426502 2.435328
v 17.973211 22.421501 2.435328
v 17.950502 22.426502 2.450503
v 17.950502 22.421501 2.450503
v 17.935328 22.426502 2.473212
v 17.935328 22.421501 2.473212
v 17.930000 22.426502 2.500000
v 17.930000 22.421501 2.500000
v 17.935328 22.426502 2.526788
v 17.935328 22.421501 2.526788
v 17.950502 22.426502 2.549497
v 17.950502 22.421501 2.549497
v 17.973211 22.426502 2.564672
v 17.973211 22.421501 2.564672
vn 0.1951 -0.0000 0.9808
vn 0.5556 -0.0000 0.8315
vn 0.8315 -0.0000 0.5556
vn 0.9808 -0.0000 0.1951
vn 0.9808 -0.0000 -0.1951
vn 0.8315 -0.0000 -0.5556
vn 0.5556 -0.0000 -0.8315
vn 0.1951 -0.0000 -0.9808
vn -0.1951 -0.0000 -0.9808
vn -0.5556 -0.0000 -0.8315
vn -0.8315 -0.0000 -0.5556
vn -0.9808 -0.0000 -0.1951
vn -0.9808 -0.0000 0.1951
vn -0.8315 -0.0000 0.5556
vn -0.0000 -1.0000 -0.0000
vn -0.5556 -0.0000 0.8315
vn -0.1951 -0.0000 0.9808
vn -0.0000 1.0000 -0.0000
s 0
usemtl MAT_GaugeFace
f 33//19 34//19 36//19 35//19
f 35//20 36//20 38//20 37//20
f 37//21 38//21 40//21 39//21
f 39//22 40//22 42//22 41//22
f 41//23 42//23 44//23 43//23
f 43//24 44//24 46//24 45//24
f 45//25 46//25 48//25 47//25
f 47//26 48//26 50//26 49//26
f 49//27 50//27 52//27 51//27
f 51//28 52//28 54//28 53//28
f 53//29 54//29 56//29 55//29
f 55//30 56//30 58//30 57//30
f 57//31 58//31 60//31 59//31
f 59//32 60//32 62//32 61//32
f 36//33 34//33 64//33 62//33 60//33 58//33 56//33 54//33 52//33 50//33 48//33 46//33 44//33 42//33 40//33 38//33
f 61//34 62//34 64//34 63//34
f 63//35 64//35 34//35 33//35
f 33//36 35//36 37//36 39//36 41//36 43//36 45//36 47//36 49//36 51//36 53//36 55//36 57//36 59//36 61//36 63//36
o APRILTAG_01
v 18.125000 22.453751 2.425000
v 18.125000 22.446251 2.425000
v 18.125000 22.453751 2.575000
v 18.125000 22.446251 2.575000
v 18.275002 22.453751 2.425000
v 18.275002 22.446251 2.425000
v 18.275002 22.453751 2.575000
v 18.275002 22.446251 2.575000
vn -1.0000 -0.0000 -0.0000
vn -0.0000 -0.0000 1.0000
vn 1.0000 -0.0000 -0.0000
vn -0.0000 -0.0000 -1.0000
vn -0.0000 1.0000 -0.0000
vn -0.0000 -1.0000 -0.0000
s 0
usemtl MAT_AprilTag_Placeholder
f 65//37 66//37 68//37 67//37
f 67//38 68//38 72//38 71//38
f 71//39 72//39 70//39 69//39
f 69//40 70//40 66//40 65//40
f 67//41 71//41 69//41 65//41
f 72//42 68//42 66//42 70//42
o GAUGE_Tank_T01
v 6.225000 35.080002 1.500000
v 6.275000 35.080002 1.500000
v 6.225000 35.073910 1.469385
v 6.275000 35.073910 1.469385
v 6.225000 35.056568 1.443431
v 6.275000 35.056568 1.443431
v 6.225000 35.030613 1.426090
v 6.275000 35.030613 1.426090
v 6.225000 35.000000 1.420000
v 6.275000 35.000000 1.420000
v 6.225000 34.969387 1.426090
v 6.275000 34.969387 1.426090
v 6.225000 34.943432 1.443431
v 6.275000 34.943432 1.443431
v 6.225000 34.926090 1.469385
v 6.275000 34.926090 1.469385
v 6.225000 34.919998 1.500000
v 6.275000 34.919998 1.500000
v 6.225000 34.926090 1.530615
v 6.275000 34.926090 1.530615
v 6.225000 34.943432 1.556569
v 6.275000 34.943432 1.556569
v 6.225000 34.969387 1.573910
v 6.275000 34.969387 1.573910
v 6.225000 35.000000 1.580000
v 6.275000 35.000000 1.580000
v 6.225000 35.030613 1.573910
v 6.275000 35.030613 1.573910
v 6.225000 35.056568 1.556569
v 6.275000 35.056568 1.556569
v 6.225000 35.073910 1.530615
v 6.275000 35.073910 1.530615
vn -0.0000 0.9808 -0.1951
vn -0.0000 0.8315 -0.5556
vn -0.0000 0.5556 -0.8315
vn -0.0000 0.1951 -0.9808
vn -0.0000 -0.1951 -0.9808
vn -0.0000 -0.5556 -0.8315
vn -0.0000 -0.8315 -0.5556
vn -0.0000 -0.9808 -0.1951
vn -0.0000 -0.9808 0.1951
vn -0.0000 -0.8315 0.5556
vn -0.0000 -0.5556 0.8315
vn -0.0000 -0.1951 0.9808
vn -0.0000 0.1951 0.9808
vn -0.0000 0.5556 0.8315
vn 1.0000 -0.0000 -0.0000
vn -0.0000 0.8315 0.5556
vn -0.0000 0.9808 0.1951
vn -1.0000 -0.0000 -0.0000
s 0
usemtl MAT_GaugeBody
f 73//43 74//43 76//43 75//43
f 75//44 76//44 78//44 77//44
f 77//45 78//45 80//45 79//45
f 79//46 80//46 82//46 81//46
f 81//47 82//47 84//47 83//47
f 83//48 84//48 86//48 85//48
f 85//49 86//49 88//49 87//49
f 87//50 88//50 90//50 89//50
f 89//51 90//51 92//51 91//51
f 91//52 92//52 94//52 93//52
f 93//53 94//53 96//53 95//53
f 95//54 96//54 98//54 97//54
f 97//55 98//55 100//55 99//55
f 99//56 100//56 102//56 101//56
f 76//57 74//57 104//57 102//57 100//57 98//57 96//57 94//57 92//57 90//57 88//57 86//57 84//57 82//57 80//57 78//57
f 101//58 102//58 104//58 103//58
f 103//59 104//59 74//59 73//59
f 73//60 75//60 77//60 79//60 81//60 83//60 85//60 87//60 89//60 91//60 93//60 95//60 97//60 99//60 101//60 103//60
o GAUGE_Tank_T01_Face
v 6.273500 35.070000 1.500000
v 6.278500 35.070000 1.500000
v 6.273500 35.064671 1.473212
v 6.278500 35.064671 1.473212
v 6.273500 35.049496 1.450503
v 6.278500 35.049496 1.450503
v 6.273500 35.026787 1.435328
v 6.278500 35.026787 1.435328
v 6.273500 35.000000 1.430000
v 6.278500 35.000000 1.430000
v 6.273500 34.973213 1.435328
v 6.278500 34.973213 1.435328
v 6.273500 34.950504 1.450503
v 6.278500 34.950504 1.450503
v 6.273500 34.935329 1.473212
v 6.278500 34.935329 1.473212
v 6.273500 34.930000 1.500000
v 6.278500 34.930000 1.500000
v 6.273500 34.935329 1.526788
v 6.278500 34.935329 1.526788
v 6.273500 34.950504 1.549497
v 6.278500 34.950504 1.549497
v 6.273500 34.973213 1.564672
v 6.278500 34.973213 1.564672
v 6.273500 35.000000 1.570000
v 6.278500 35.000000 1.570000
v 6.273500 35.026787 1.564672
v 6.278500 35.026787 1.564672
v 6.273500 35.049496 1.549497
v 6.278500 35.049496 1.549497
v 6.273500 35.064671 1.526788
v 6.278500 35.064671 1.526788
vn -0.0000 0.9808 -0.1951
vn -0.0000 0.8315 -0.5556
vn -0.0000 0.5556 -0.8315
vn -0.0000 0.1951 -0.9808
vn -0.0000 -0.1951 -0.9808
vn -0.0000 -0.5556 -0.8315
vn -0.0000 -0.8315 -0.5556
vn -0.0000 -0.9808 -0.1951
vn -0.0000 -0.9808 0.1951
vn -0.0000 -0.8315 0.5556
vn -0.0000 -0.5556 0.8315
vn -0.0000 -0.1951 0.9808
vn -0.0000 0.1951 0.9808
vn -0.0000 0.5556 0.8315
vn 1.0000 -0.0000 -0.0000
vn -0.0000 0.8315 0.5556
vn -0.0000 0.9808 0.1951
vn -1.0000 -0.0000 -0.0000
s 0
usemtl MAT_GaugeFace
f 105//61 106//61 108//61 107//61
f 107//62 108//62 110//62 109//62
f 109//63 110//63 112//63 111//63
f 111//64 112//64 114//64 113//64
f 113//65 114//65 116//65 115//65
f 115//66 116//66 118//66 117//66
f 117//67 118//67 120//67 119//67
f 119//68 120//68 122//68 121//68
f 121//69 122//69 124//69 123//69
f 123//70 124//70 126//70 125//70
f 125//71 126//71 128//71 127//71
f 127//72 128//72 130//72 129//72
f 129//73 130//73 132//73 131//73
f 131//74 132//74 134//74 133//74
f 108//75 106//75 136//75 134//75 132//75 130//75 128//75 126//75 124//75 122//75 120//75 118//75 116//75 114//75 112//75 110//75
f 133//76 134//76 136//76 135//76
f 135//77 136//77 106//77 105//77
f 105//78 107//78 109//78 111//78 113//78 115//78 117//78 119//78 121//78 123//78 125//78 127//78 129//78 131//78 133//78 135//78
o APRILTAG_02
v 6.246250 34.724998 1.575000
v 6.253750 34.724998 1.575000
v 6.246250 34.875000 1.575000
v 6.253750 34.875000 1.575000
v 6.246250 34.724998 1.425000
v 6.253750 34.724998 1.425000
v 6.246250 34.875000 1.425000
v 6.253750 34.875000 1.425000
vn -0.0000 -0.0000 1.0000
vn -0.0000 1.0000 -0.0000
vn -0.0000 -0.0000 -1.0000
vn -0.0000 -1.0000 -0.0000
vn -1.0000 -0.0000 -0.0000
vn 1.0000 -0.0000 -0.0000
s 0
usemtl MAT_AprilTag_Placeholder
f 137//79 138//79 140//79 139//79
f 139//80 140//80 144//80 143//80
f 143//81 144//81 142//81 141//81
f 141//82 142//82 138//82 137//82
f 139//83 143//83 141//83 137//83
f 144//84 140//84 138//84 142//84
o GAUGE_Tank_T03
v 6.225000 28.080000 1.500000
v 6.275000 28.080000 1.500000
v 6.225000 28.073910 1.469385
v 6.275000 28.073910 1.469385
v 6.225000 28.056568 1.443431
v 6.275000 28.056568 1.443431
v 6.225000 28.030615 1.426090
v 6.275000 28.030615 1.426090
v 6.225000 28.000000 1.420000
v 6.275000 28.000000 1.420000
v 6.225000 27.969385 1.426090
v 6.275000 27.969385 1.426090
v 6.225000 27.943432 1.443431
v 6.275000 27.943432 1.443431
v 6.225000 27.926090 1.469385
v 6.275000 27.926090 1.469385
v 6.225000 27.920000 1.500000
v 6.275000 27.920000 1.500000
v 6.225000 27.926090 1.530615
v 6.275000 27.926090 1.530615
v 6.225000 27.943432 1.556569
v 6.275000 27.943432 1.556569
v 6.225000 27.969385 1.573910
v 6.275000 27.969385 1.573910
v 6.225000 28.000000 1.580000
v 6.275000 28.000000 1.580000
v 6.225000 28.030615 1.573910
v 6.275000 28.030615 1.573910
v 6.225000 28.056568 1.556569
v 6.275000 28.056568 1.556569
v 6.225000 28.073910 1.530615
v 6.275000 28.073910 1.530615
vn -0.0000 0.9808 -0.1951
vn -0.0000 0.8315 -0.5556
vn -0.0000 0.5556 -0.8315
vn -0.0000 0.1951 -0.9808
vn -0.0000 -0.1951 -0.9808
vn -0.0000 -0.5556 -0.8315
vn -0.0000 -0.8315 -0.5556
vn -0.0000 -0.9808 -0.1951
vn -0.0000 -0.9808 0.1951
vn -0.0000 -0.8315 0.5556
vn -0.0000 -0.5556 0.8315
vn -0.0000 -0.1951 0.9808
vn -0.0000 0.1951 0.9808
vn -0.0000 0.5556 0.8315
vn 1.0000 -0.0000 -0.0000
vn -0.0000 0.8315 0.5556
vn -0.0000 0.9808 0.1951
vn -1.0000 -0.0000 -0.0000
s 0
usemtl MAT_GaugeBody
f 145//85 146//85 148//85 147//85
f 147//86 148//86 150//86 149//86
f 149//87 150//87 152//87 151//87
f 151//88 152//88 154//88 153//88
f 153//89 154//89 156//89 155//89
f 155//90 156//90 158//90 157//90
f 157//91 158//91 160//91 159//91
f 159//92 160//92 162//92 161//92
f 161//93 162//93 164//93 163//93
f 163//94 164//94 166//94 165//94
f 165//95 166//95 168//95 167//95
f 167//96 168//96 170//96 169//96
f 169//97 170//97 172//97 171//97
f 171//98 172//98 174//98 173//98
f 148//99 146//99 176//99 174//99 172//99 170//99 168//99 166//99 164//99 162//99 160//99 158//99 156//99 154//99 152//99 150//99
f 173//100 174//100 176//100 175//100
f 175//101 176//101 146//101 145//101
f 145//102 147//102 149//102 151//102 153//102 155//102 157//102 159//102 161//102 163//102 165//102 167//102 169//102 171//102 173//102 175//102
o GAUGE_Tank_T03_Face
v 6.273500 28.070000 1.500000
v 6.278500 28.070000 1.500000
v 6.273500 28.064672 1.473212
v 6.278500 28.064672 1.473212
v 6.273500 28.049498 1.450503
v 6.278500 28.049498 1.450503
v 6.273500 28.026789 1.435328
v 6.278500 28.026789 1.435328
v 6.273500 28.000000 1.430000
v 6.278500 28.000000 1.430000
v 6.273500 27.973211 1.435328
v 6.278500 27.973211 1.435328
v 6.273500 27.950502 1.450503
v 6.278500 27.950502 1.450503
v 6.273500 27.935328 1.473212
v 6.278500 27.935328 1.473212
v 6.273500 27.930000 1.500000
v 6.278500 27.930000 1.500000
v 6.273500 27.935328 1.526788
v 6.278500 27.935328 1.526788
v 6.273500 27.950502 1.549497
v 6.278500 27.950502 1.549497
v 6.273500 27.973211 1.564672
v 6.278500 27.973211 1.564672
v 6.273500 28.000000 1.570000
v 6.278500 28.000000 1.570000
v 6.273500 28.026789 1.564672
v 6.278500 28.026789 1.564672
v 6.273500 28.049498 1.549497
v 6.278500 28.049498 1.549497
v 6.273500 28.064672 1.526788
v 6.278500 28.064672 1.526788
vn -0.0000 0.9808 -0.1951
vn -0.0000 0.8315 -0.5556
vn -0.0000 0.5556 -0.8315
vn -0.0000 0.1951 -0.9808
vn -0.0000 -0.1951 -0.9808
vn -0.0000 -0.5556 -0.8315
vn -0.0000 -0.8315 -0.5556
vn -0.0000 -0.9808 -0.1951
vn -0.0000 -0.9808 0.1951
vn -0.0000 -0.8315 0.5556
vn -0.0000 -0.5556 0.8315
vn -0.0000 -0.1951 0.9808
vn -0.0000 0.1951 0.9808
vn -0.0000 0.5556 0.8315
vn 1.0000 -0.0000 -0.0000
vn -0.0000 0.8315 0.5556
vn -0.0000 0.9808 0.1951
vn -1.0000 -0.0000 -0.0000
s 0
usemtl MAT_GaugeFace
f 177//103 178//103 180//103 179//103
f 179//104 180//104 182//104 181//104
f 181//105 182//105 184//105 183//105
f 183//106 184//106 186//106 185//106
f 185//107 186//107 188//107 187//107
f 187//108 188//108 190//108 189//108
f 189//109 190//109 192//109 191//109
f 191//110 192//110 194//110 193//110
f 193//111 194//111 196//111 195//111
f 195//112 196//112 198//112 197//112
f 197//113 198//113 200//113 199//113
f 199//114 200//114 202//114 201//114
f 201//115 202//115 204//115 203//115
f 203//116 204//116 206//116 205//116
f 180//117 178//117 208//117 206//117 204//117 202//117 200//117 198//117 196//117 194//117 192//117 190//117 188//117 186//117 184//117 182//117
f 205//118 206//118 208//118 207//118
f 207//119 208//119 178//119 177//119
f 177//120 179//120 181//120 183//120 185//120 187//120 189//120 191//120 193//120 195//120 197//120 199//120 201//120 203//120 205//120 207//120
o APRILTAG_03
v 6.246250 27.724998 1.575000
v 6.253750 27.724998 1.575000
v 6.246250 27.875000 1.575000
v 6.253750 27.875000 1.575000
v 6.246250 27.724998 1.425000
v 6.253750 27.724998 1.425000
v 6.246250 27.875000 1.425000
v 6.253750 27.875000 1.425000
vn -0.0000 -0.0000 1.0000
vn -0.0000 1.0000 -0.0000
vn -0.0000 -0.0000 -1.0000
vn -0.0000 -1.0000 -0.0000
vn -1.0000 -0.0000 -0.0000
vn 1.0000 -0.0000 -0.0000
s 0
usemtl MAT_AprilTag_Placeholder
f 209//121 210//121 212//121 211//121
f 211//122 212//122 216//122 215//122
f 215//123 216//123 214//123 213//123
f 213//124 214//124 210//124 209//124
f 211//125 215//125 213//125 209//125
f 216//126 212//126 210//126 214//126
