# Blender 5.1.2
# www.blender.org
mtllib INTERIOR_WALLS.mtl
o WALL_INT_CorridorSouth_CS_W1
v 0.250000 19.500000 0.139086
v 0.250000 19.500000 6.139086
v 0.250000 19.700001 0.139086
v 0.250000 19.700001 6.139086
v 6.500000 19.500000 0.139086
v 6.500000 19.500000 6.139086
v 6.500000 19.700001 0.139086
v 6.500000 19.700001 6.139086
vn -1.0000 -0.0000 -0.0000
vn -0.0000 1.0000 -0.0000
vn 1.0000 -0.0000 -0.0000
vn -0.0000 -1.0000 -0.0000
vn -0.0000 -0.0000 -1.0000
vn -0.0000 -0.0000 1.0000
s 0
usemtl MAT_InteriorWall
f 1//1 2//1 4//1 3//1
f 3//2 4//2 8//2 7//2
f 7//3 8//3 6//3 5//3
f 5//4 6//4 2//4 1//4
f 3//5 7//5 5//5 1//5
f 8//6 4//6 2//6 6//6
o WALL_INT_CorridorSouth_CS_W2
v 9.500000 19.500000 0.139086
v 9.500000 19.500000 6.139086
v 9.500000 19.700001 0.139086
v 9.500000 19.700001 6.139086
v 23.500000 19.500000 0.139086
v 23.500000 19.500000 6.139086
v 23.500000 19.700001 0.139086
v 23.500000 19.700001 6.139086
vn -1.0000 -0.0000 -0.0000
vn -0.0000 1.0000 -0.0000
vn 1.0000 -0.0000 -0.0000
vn -0.0000 -1.0000 -0.0000
vn -0.0000 -0.0000 -1.0000
vn -0.0000 -0.0000 1.0000
s 0
usemtl MAT_InteriorWall
f 9//7 10//7 12//7 11//7
f 11//8 12//8 16//8 15//8
f 15//9 16//9 14//9 13//9
f 13//10 14//10 10//10 9//10
f 11//11 15//11 13//11 9//11
f 16//12 12//12 10//12 14//12
o WALL_INT_CorridorSouth_CS_W3
v 26.500000 19.500000 0.139086
v 26.500000 19.500000 6.139086
v 26.500000 19.700001 0.139086
v 26.500000 19.700001 6.139086
v 33.250000 19.500000 0.139086
v 33.250000 19.500000 6.139086
v 33.250000 19.700001 0.139086
v 33.250000 19.700001 6.139086
vn -1.0000 -0.0000 -0.0000
vn -0.0000 1.0000 -0.0000
vn 1.0000 -0.0000 -0.0000
vn -0.0000 -1.0000 -0.0000
vn -0.0000 -0.0000 -1.0000
vn -0.0000 -0.0000 1.0000
s 0
usemtl MAT_InteriorWall
f 17//13 18//13 20//13 19//13
f 19//14 20//14 24//14 23//14
f 23//15 24//15 22//15 21//15
f 21//16 22//16 18//16 17//16
f 19//17 23//17 21//17 17//17
f 24//18 20//18 18//18 22//18
o WALL_INT_CorridorSouth_CS_E1
v 36.750000 19.500000 0.139086
v 36.750000 19.500000 6.139086
v 36.750000 19.700001 0.139086
v 36.750000 19.700001 6.139086
v 59.750000 19.500000 0.139086
v 59.750000 19.500000 6.139086
v 59.750000 19.700001 0.139086
v 59.750000 19.700001 6.139086
v 50.170193 19.700001 6.139086
v 46.690189 19.700001 6.139086
v 46.690189 19.700001 0.139086
v 50.170193 19.700001 0.139086
v 46.690189 19.500000 6.139086
v 50.170193 19.500000 6.139086
v 50.170193 19.500000 0.139086
v 46.690189 19.500000 0.139086
vn -1.0000 -0.0000 -0.0000
vn -0.0000 1.0000 -0.0000
vn 1.0000 -0.0000 -0.0000
vn -0.0000 -1.0000 -0.0000
vn -0.0000 -0.0000 -1.0000
vn -0.0000 -0.0000 1.0000
s 0
usemtl MAT_InteriorWall
f 25//19 26//19 28//19 27//19
f 32//20 31//20 36//20 33//20
f 27//20 28//20 34//20 35//20
f 31//21 32//21 30//21 29//21
f 37//22 26//22 25//22 40//22
f 29//22 30//22 38//22 39//22
f 36//23 31//23 29//23 39//23
f 25//23 27//23 35//23 40//23
f 28//24 26//24 37//24 34//24
f 38//24 30//24 32//24 33//24
f 35//21 34//21 37//21 40//21
f 33//19 36//19 39//19 38//19
o WALL_INT_CorridorNorth_CN_W1
v 0.250000 22.900000 0.139086
v 0.250000 22.900000 6.139086
v 0.250000 23.100000 0.139086
v 0.250000 23.100000 6.139086
v 8.750000 22.900000 0.139086
v 8.750000 22.900000 6.139086
v 8.750000 23.100000 0.139086
v 8.750000 23.100000 6.139086
vn -1.0000 -0.0000 -0.0000
vn -0.0000 1.0000 -0.0000
vn 1.0000 -0.0000 -0.0000
vn -0.0000 -1.0000 -0.0000
vn -0.0000 -0.0000 -1.0000
vn -0.0000 -0.0000 1.0000
s 0
usemtl MAT_InteriorWall
f 41//25 42//25 44//25 43//25
f 43//26 44//26 48//26 47//26
f 47//27 48//27 46//27 45//27
f 45//28 46//28 42//28 41//28
f 43//29 47//29 45//29 41//29
f 48//30 44//30 42//30 46//30
o WALL_INT_CorridorNorth_CN_W2
v 11.250000 22.900000 0.139086
v 11.250000 22.900000 6.139086
v 11.250000 23.100000 0.139086
v 11.250000 23.100000 6.139086
v 26.750000 22.900000 0.139086
v 26.750000 22.900000 6.139086
v 26.750000 23.100000 0.139086
v 26.750000 23.100000 6.139086
vn -1.0000 -0.0000 -0.0000
vn -0.0000 1.0000 -0.0000
vn 1.0000 -0.0000 -0.0000
vn -0.0000 -1.0000 -0.0000
vn -0.0000 -0.0000 -1.0000
vn -0.0000 -0.0000 1.0000
s 0
usemtl MAT_InteriorWall
f 49//31 50//31 52//31 51//31
f 51//32 52//32 56//32 55//32
f 55//33 56//33 54//33 53//33
f 53//34 54//34 50//34 49//34
f 51//35 55//35 53//35 49//35
f 56//36 52//36 50//36 54//36
o WALL_INT_CorridorNorth_CN_W3
v 29.250002 22.900000 0.139086
v 29.250002 22.900000 6.139086
v 29.250002 23.100000 0.139086
v 29.250002 23.100000 6.139086
v 39.300003 22.900000 0.139086
v 39.300003 22.900000 6.139086
v 39.300003 23.100000 0.139086
v 39.300003 23.100000 6.139086
vn -1.0000 -0.0000 -0.0000
vn -0.0000 1.0000 -0.0000
vn 1.0000 -0.0000 -0.0000
vn -0.0000 -1.0000 -0.0000
vn -0.0000 -0.0000 -1.0000
vn -0.0000 -0.0000 1.0000
s 0
usemtl MAT_InteriorWall
f 57//37 58//37 60//37 59//37
f 59//38 60//38 64//38 63//38
f 63//39 64//39 62//39 61//39
f 61//40 62//40 58//40 57//40
f 59//41 63//41 61//41 57//41
f 64//42 60//42 58//42 62//42
o WALL_INT_CorridorNorth_Lintel_D01
v 8.750000 22.900000 2.939085
v 8.750000 22.900000 6.139085
v 8.750000 23.100000 2.939085
v 8.750000 23.100000 6.139085
v 11.250000 22.900000 2.939085
v 11.250000 22.900000 6.139085
v 11.250000 23.100000 2.939085
v 11.250000 23.100000 6.139085
vn -1.0000 -0.0000 -0.0000
vn -0.0000 1.0000 -0.0000
vn 1.0000 -0.0000 -0.0000
vn -0.0000 -1.0000 -0.0000
vn -0.0000 -0.0000 -1.0000
vn -0.0000 -0.0000 1.0000
s 0
usemtl MAT_InteriorWall
f 65//43 66//43 68//43 67//43
f 67//44 68//44 72//44 71//44
f 71//45 72//45 70//45 69//45
f 69//46 70//46 66//46 65//46
f 67//47 71//47 69//47 65//47
f 72//48 68//48 66//48 70//48
o WALL_INT_CorridorNorth_Lintel_D02
v 26.750000 22.900000 2.939085
v 26.750000 22.900000 6.139085
v 26.750000 23.100000 2.939085
v 26.750000 23.100000 6.139085
v 29.250000 22.900000 2.939085
v 29.250000 22.900000 6.139085
v 29.250000 23.100000 2.939085
v 29.250000 23.100000 6.139085
vn -1.0000 -0.0000 -0.0000
vn -0.0000 1.0000 -0.0000
vn 1.0000 -0.0000 -0.0000
vn -0.0000 -1.0000 -0.0000
vn -0.0000 -0.0000 -1.0000
vn -0.0000 -0.0000 1.0000
s 0
usemtl MAT_InteriorWall
f 73//49 74//49 76//49 75//49
f 75//50 76//50 80//50 79//50
f 79//51 80//51 78//51 77//51
f 77//52 78//52 74//52 73//52
f 75//53 79//53 77//53 73//53
f 80//54 76//54 74//54 78//54
o WALL_INT_Processing_Elec_S
v 39.500000 23.039064 0.139086
v 39.500000 23.039064 6.139086
v 39.500000 28.839064 0.139086
v 39.500000 28.839064 6.139086
v 39.699997 23.039064 0.139086
v 39.699997 23.039064 6.139086
v 39.699997 28.839064 0.139086
v 39.699997 28.839064 6.139086
vn -1.0000 -0.0000 -0.0000
vn -0.0000 1.0000 -0.0000
vn 1.0000 -0.0000 -0.0000
vn -0.0000 -1.0000 -0.0000
vn -0.0000 -0.0000 -1.0000
vn -0.0000 -0.0000 1.0000
s 0
usemtl MAT_InteriorWall
f 81//55 82//55 84//55 83//55
f 83//56 84//56 88//56 87//56
f 87//57 88//57 86//57 85//57
f 85//58 86//58 82//58 81//58
f 83//59 87//59 85//59 81//59
f 88//60 84//60 82//60 86//60
o WALL_INT_Processing_Elec_DoorLintel_D03
v 39.500000 28.750000 2.939085
v 39.500000 28.750000 6.139085
v 39.500000 30.750000 2.939085
v 39.500000 30.750000 6.139085
v 39.699997 28.750000 2.939085
v 39.699997 28.750000 6.139085
v 39.699997 30.750000 2.939085
v 39.699997 30.750000 6.139085
vn -1.0000 -0.0000 -0.0000
vn -0.0000 1.0000 -0.0000
vn 1.0000 -0.0000 -0.0000
vn -0.0000 -1.0000 -0.0000
vn -0.0000 -0.0000 -1.0000
vn -0.0000 -0.0000 1.0000
s 0
usemtl MAT_InteriorWall
f 89//61 90//61 92//61 91//61
f 91//62 92//62 96//62 95//62
f 95//63 96//63 94//63 93//63
f 93//64 94//64 90//64 89//64
f 91//65 95//65 93//65 89//65
f 96//66 92//66 90//66 94//66
o WALL_INT_Processing_Elec_N
v 39.500000 30.750000 0.139086
v 39.500000 30.750000 6.139086
v 39.500000 39.750000 0.139086
v 39.500000 39.750000 6.139086
v 39.699997 30.750000 0.139086
v 39.699997 30.750000 6.139086
v 39.699997 39.750000 0.139086
v 39.699997 39.750000 6.139086
vn -1.0000 -0.0000 -0.0000
vn -0.0000 1.0000 -0.0000
vn 1.0000 -0.0000 -0.0000
vn -0.0000 -1.0000 -0.0000
vn -0.0000 -0.0000 -1.0000
vn -0.0000 -0.0000 1.0000
s 0
usemtl MAT_InteriorWall
f 97//67 98//67 100//67 99//67
f 99//68 100//68 104//68 103//68
f 103//69 104//69 102//69 101//69
f 101//70 102//70 98//70 97//70
f 99//71 103//71 101//71 97//71
f 104//72 100//72 98//72 102//72
o WALL_INT_Elec_Ctrl_S
v 49.500000 22.879139 0.139086
v 49.500000 22.879139 6.139086
v 49.500000 28.679138 0.139086
v 49.500000 28.679138 6.139086
v 49.699997 22.879139 0.139086
v 49.699997 22.879139 6.139086
v 49.699997 28.679138 0.139086
v 49.699997 28.679138 6.139086
vn -1.0000 -0.0000 -0.0000
vn -0.0000 1.0000 -0.0000
vn 1.0000 -0.0000 -0.0000
vn -0.0000 -1.0000 -0.0000
vn -0.0000 -0.0000 -1.0000
vn -0.0000 -0.0000 1.0000
s 0
usemtl MAT_ElecRoomWall
f 105//73 106//73 108//73 107//73
f 107//74 108//74 112//74 111//74
f 111//75 112//75 110//75 109//75
f 109//76 110//76 106//76 105//76
f 107//77 111//77 109//77 105//77
f 112//78 108//78 106//78 110//78
o WALL_INT_Elec_Ctrl_DoorLintel_D05
v 49.500000 28.750000 2.939085
v 49.500000 28.750000 6.139085
v 49.500000 30.549999 2.939085
v 49.500000 30.549999 6.139085
v 49.699997 28.750000 2.939085
v 49.699997 28.750000 6.139085
v 49.699997 30.549999 2.939085
v 49.699997 30.549999 6.139085
vn -1.0000 -0.0000 -0.0000
vn -0.0000 1.0000 -0.0000
vn 1.0000 -0.0000 -0.0000
vn -0.0000 -1.0000 -0.0000
vn -0.0000 -0.0000 -1.0000
vn -0.0000 -0.0000 1.0000
s 0
usemtl MAT_ElecRoomWall
f 113//79 114//79 116//79 115//79
f 115//80 116//80 120//80 119//80
f 119//81 120//81 118//81 117//81
f 117//82 118//82 114//82 113//82
f 115//83 119//83 117//83 113//83
f 120//84 116//84 114//84 118//84
o WALL_INT_Elec_Ctrl_N
v 49.500000 30.550001 0.139086
v 49.500000 30.550001 6.139086
v 49.500000 39.750000 0.139086
v 49.500000 39.750000 6.139086
v 49.699997 30.550001 0.139086
v 49.699997 30.550001 6.139086
v 49.699997 39.750000 0.139086
v 49.699997 39.750000 6.139086
vn -1.0000 -0.0000 -0.0000
vn -0.0000 1.0000 -0.0000
vn 1.0000 -0.0000 -0.0000
vn -0.0000 -1.0000 -0.0000
vn -0.0000 -0.0000 -1.0000
vn -0.0000 -0.0000 1.0000
s 0
usemtl MAT_ElecRoomWall
f 121//85 122//85 124//85 123//85
f 123//86 124//86 128//86 127//86
f 127//87 128//87 126//87 125//87
f 125//88 126//88 122//88 121//88
f 123//89 127//89 125//89 121//89
f 128//90 124//90 122//90 126//90
o WALL_INT_ElecRoom_Corridor_W
v 39.500000 22.900000 0.139086
v 39.500000 22.900000 6.139086
v 39.500000 23.100000 0.139086
v 39.500000 23.100000 6.139086
v 43.750000 22.900000 0.139086
v 43.750000 22.900000 6.139086
v 43.750000 23.100000 0.139086
v 43.750000 23.100000 6.139086
vn -1.0000 -0.0000 -0.0000
vn -0.0000 1.0000 -0.0000
vn 1.0000 -0.0000 -0.0000
vn -0.0000 -1.0000 -0.0000
vn -0.0000 -0.0000 -1.0000
vn -0.0000 -0.0000 1.0000
vt 0.000000 0.000000
s 0
usemtl MAT_ElecRoomWall
f 129/1/91 130/1/91 132/1/91 131/1/91
f 131/1/92 132/1/92 136/1/92 135/1/92
f 135/1/93 136/1/93 134/1/93 133/1/93
f 133/1/94 134/1/94 130/1/94 129/1/94
f 131/1/95 135/1/95 133/1/95 129/1/95
f 136/1/96 132/1/96 130/1/96 134/1/96
o WALL_INT_ElecRoom_Corridor_DoorLintel_D04
v 43.750000 22.900000 2.939085
v 43.750000 22.900000 6.139085
v 43.750000 23.100000 2.939085
v 43.750000 23.100000 6.139085
v 45.750000 22.900000 2.939085
v 45.750000 22.900000 6.139085
v 45.750000 23.100000 2.939085
v 45.750000 23.100000 6.139085
vn -1.0000 -0.0000 -0.0000
vn -0.0000 1.0000 -0.0000
vn 1.0000 -0.0000 -0.0000
vn -0.0000 -1.0000 -0.0000
vn -0.0000 -0.0000 -1.0000
vn -0.0000 -0.0000 1.0000
s 0
usemtl MAT_ElecRoomWall
f 137//97 138//97 140//97 139//97
f 139//98 140//98 144//98 143//98
f 143//99 144//99 142//99 141//99
f 141//100 142//100 138//100 137//100
f 139//101 143//101 141//101 137//101
f 144//102 140//102 138//102 142//102
o WALL_INT_ElecRoom_Corridor_E
v 45.750000 22.900000 0.139086
v 45.750000 22.900000 6.139086
v 45.750000 23.100000 0.139086
v 45.750000 23.100000 6.139086
v 49.500000 22.900000 0.139086
v 49.500000 22.900000 6.139086
v 49.500000 23.100000 0.139086
v 49.500000 23.100000 6.139086
vn -1.0000 -0.0000 -0.0000
vn -0.0000 1.0000 -0.0000
vn 1.0000 -0.0000 -0.0000
vn -0.0000 -1.0000 -0.0000
vn -0.0000 -0.0000 -1.0000
vn -0.0000 -0.0000 1.0000
s 0
usemtl MAT_ElecRoomWall
f 145//103 146//103 148//103 147//103
f 147//104 148//104 152//104 151//104
f 151//105 152//105 150//105 149//105
f 149//106 150//106 146//106 145//106
f 147//107 151//107 149//107 145//107
f 152//108 148//108 146//108 150//108
o WALL_INT_CtrlRoom_Corridor_W
v 49.500000 22.900000 0.139086
v 49.500000 22.900000 6.139086
v 49.500000 23.100000 0.139086
v 49.500000 23.100000 6.139086
v 53.750000 22.900000 0.139086
v 53.750000 22.900000 6.139086
v 53.750000 23.100000 0.139086
v 53.750000 23.100000 6.139086
vn -1.0000 -0.0000 -0.0000
vn -0.0000 1.0000 -0.0000
vn 1.0000 -0.0000 -0.0000
vn -0.0000 -1.0000 -0.0000
vn -0.0000 -0.0000 -1.0000
vn -0.0000 -0.0000 1.0000
s 0
usemtl MAT_CtrlRoomWall
f 153//109 154//109 156//109 155//109
f 155//110 156//110 160//110 159//110
f 159//111 160//111 158//111 157//111
f 157//112 158//112 154//112 153//112
f 155//113 159//113 157//113 153//113
f 160//114 156//114 154//114 158//114
o WALL_INT_CtrlRoom_Corridor_DoorLintel_D06
v 53.750000 22.900000 2.939085
v 53.750000 22.900000 6.139085
v 53.750000 23.100000 2.939085
v 53.750000 23.100000 6.139085
v 55.750000 22.900000 2.939085
v 55.750000 22.900000 6.139085
v 55.750000 23.100000 2.939085
v 55.750000 23.100000 6.139085
vn -1.0000 -0.0000 -0.0000
vn -0.0000 1.0000 -0.0000
vn 1.0000 -0.0000 -0.0000
vn -0.0000 -1.0000 -0.0000
vn -0.0000 -0.0000 -1.0000
vn -0.0000 -0.0000 1.0000
s 0
usemtl MAT_CtrlRoomWall
f 161//115 162//115 164//115 163//115
f 163//116 164//116 168//116 167//116
f 167//117 168//117 166//117 165//117
f 165//118 166//118 162//118 161//118
f 163//119 167//119 165//119 161//119
f 168//120 164//120 162//120 166//120
o WALL_INT_CtrlRoom_Corridor_E
v 55.750000 22.900000 0.139086
v 55.750000 22.900000 6.139086
v 55.750000 23.100000 0.139086
v 55.750000 23.100000 6.139086
v 59.750000 22.900000 0.139086
v 59.750000 22.900000 6.139086
v 59.750000 23.100000 0.139086
v 59.750000 23.100000 6.139086
vn -1.0000 -0.0000 -0.0000
vn -0.0000 1.0000 -0.0000
vn 1.0000 -0.0000 -0.0000
vn -0.0000 -1.0000 -0.0000
vn -0.0000 -0.0000 -1.0000
vn -0.0000 -0.0000 1.0000
s 0
usemtl MAT_CtrlRoomWall
f 169//121 170//121 172//121 171//121
f 171//122 172//122 176//122 175//122
f 175//123 176//123 174//123 173//123
f 173//124 174//124 170//124 169//124
f 171//125 175//125 173//125 169//125
f 176//126 172//126 170//126 174//126
o WALL_INT_Storage_Maintenance
v 18.500000 0.250000 0.139086
v 18.500000 0.250000 6.139086
v 18.500000 19.500000 0.139086
v 18.500000 19.500000 6.139086
v 18.700001 0.250000 0.139086
v 18.700001 0.250000 6.139086
v 18.700001 19.500000 0.139086
v 18.700001 19.500000 6.139086
vn -1.0000 -0.0000 -0.0000
vn -0.0000 1.0000 -0.0000
vn 1.0000 -0.0000 -0.0000
vn -0.0000 -1.0000 -0.0000
vn -0.0000 -0.0000 -1.0000
vn -0.0000 -0.0000 1.0000
s 0
usemtl MAT_InteriorWall
f 177//127 178//127 180//127 179//127
f 179//128 180//128 184//128 183//128
f 183//129 184//129 182//129 181//129
f 181//130 182//130 178//130 177//130
f 179//131 183//131 181//131 177//131
f 184//132 180//132 178//132 182//132
o WALL_INT_Maintenance_Charging
v 31.000000 0.250000 0.139086
v 31.000000 0.250000 6.139086
v 31.000000 19.500000 0.139086
v 31.000000 19.500000 6.139086
v 31.200001 0.250000 0.139086
v 31.200001 0.250000 6.139086
v 31.200001 19.500000 0.139086
v 31.200001 19.500000 6.139086
vn -1.0000 -0.0000 -0.0000
vn -0.0000 1.0000 -0.0000
vn 1.0000 -0.0000 -0.0000
vn -0.0000 -1.0000 -0.0000
vn -0.0000 -0.0000 -1.0000
vn -0.0000 -0.0000 1.0000
s 0
usemtl MAT_InteriorWall
f 185//133 186//133 188//133 187//133
f 187//134 188//134 192//134 191//134
f 191//135 192//135 190//135 189//135
f 189//136 190//136 186//136 185//136
f 187//137 191//137 189//137 185//137
f 192//138 188//138 186//138 190//138
o WALL_INT_Charging_East
v 39.500000 0.250000 0.139086
v 39.500000 0.250000 6.139086
v 39.500000 19.500000 0.139086
v 39.500000 19.500000 6.139086
v 39.699997 0.250000 0.139086
v 39.699997 0.250000 6.139086
v 39.699997 19.500000 0.139086
v 39.699997 19.500000 6.139086
vn -1.0000 -0.0000 -0.0000
vn -0.0000 1.0000 -0.0000
vn 1.0000 -0.0000 -0.0000
vn -0.0000 -1.0000 -0.0000
vn -0.0000 -0.0000 -1.0000
vn -0.0000 -0.0000 1.0000
s 0
usemtl MAT_InteriorWall
f 193//139 194//139 196//139 195//139
f 195//140 196//140 200//140 199//140
f 199//141 200//141 198//141 197//141
f 197//142 198//142 194//142 193//142
f 195//143 199//143 197//143 193//143
f 200//144 196//144 194//144 198//144
