# Blender 5.1.2
# www.blender.org
mtllib STRUCTURE.mtl
o FLOOR_MainSlab
v 0.000000 0.000000 -0.160915
v 0.000000 0.000000 0.139086
v 0.000000 40.000000 -0.160915
v 0.000000 40.000000 0.139086
v 60.000000 0.000000 -0.160915
v 60.000000 0.000000 0.139086
v 60.000000 40.000000 -0.160915
v 60.000000 40.000000 0.139086
vn -1.0000 -0.0000 -0.0000
vn -0.0000 1.0000 -0.0000
vn 1.0000 -0.0000 -0.0000
vn -0.0000 -1.0000 -0.0000
vn -0.0000 -0.0000 -1.0000
vn -0.0000 -0.0000 1.0000
s 0
usemtl MAT_ConcreteFloor
f 1//1 2//1 4//1 3//1
f 3//2 4//2 8//2 7//2
f 7//3 8//3 6//3 5//3
f 5//4 6//4 2//4 1//4
f 3//5 7//5 5//5 1//5
f 8//6 4//6 2//6 6//6
o WALL_EXT_South_W
v 0.000000 0.000000 0.139086
v 0.000000 0.000000 6.139086
v 0.000000 0.250000 0.139086
v 0.000000 0.250000 6.139086
v 23.500000 0.000000 0.139086
v 23.500000 0.000000 6.139086
v 23.500000 0.250000 0.139086
v 23.500000 0.250000 6.139086
vn -1.0000 -0.0000 -0.0000
vn -0.0000 1.0000 -0.0000
vn 1.0000 -0.0000 -0.0000
vn -0.0000 -1.0000 -0.0000
vn -0.0000 -0.0000 -1.0000
vn -0.0000 -0.0000 1.0000
s 0
usemtl MAT_ConcreteWall
f 9//7 10//7 12//7 11//7
f 11//8 12//8 16//8 15//8
f 15//9 16//9 14//9 13//9
f 13//10 14//10 10//10 9//10
f 11//11 15//11 13//11 9//11
f 16//12 12//12 10//12 14//12
o WALL_EXT_South_DoorOpening_D09_Lintel
v 23.500000 0.000000 0.125706
v 23.500000 0.000000 3.325706
v 23.500000 0.250000 0.125706
v 23.500000 0.250000 3.325706
v 26.500000 0.000000 0.125706
v 26.500000 0.000000 3.325706
v 26.500000 0.250000 0.125706
v 26.500000 0.250000 3.325706
vn -1.0000 -0.0000 -0.0000
vn -0.0000 1.0000 -0.0000
vn 1.0000 -0.0000 -0.0000
vn -0.0000 -1.0000 -0.0000
vn -0.0000 -0.0000 -1.0000
vn -0.0000 -0.0000 1.0000
s 0
usemtl MAT_ConcreteWall
f 17//13 18//13 20//13 19//13
f 19//14 20//14 24//14 23//14
f 23//15 24//15 22//15 21//15
f 21//16 22//16 18//16 17//16
f 19//17 23//17 21//17 17//17
f 24//18 20//18 18//18 22//18
o WALL_EXT_South_E
v 26.500000 0.000000 0.139086
v 26.500000 0.000000 6.139086
v 26.500000 0.250000 0.139086
v 26.500000 0.250000 6.139086
v 60.000000 0.000000 0.139086
v 60.000000 0.000000 6.139086
v 60.000000 0.250000 0.139086
v 60.000000 0.250000 6.139086
vn -1.0000 -0.0000 -0.0000
vn -0.0000 1.0000 -0.0000
vn 1.0000 -0.0000 -0.0000
vn -0.0000 -1.0000 -0.0000
vn -0.0000 -0.0000 -1.0000
vn -0.0000 -0.0000 1.0000
s 0
usemtl MAT_ConcreteWall
f 25//19 26//19 28//19 27//19
f 27//20 28//20 32//20 31//20
f 31//21 32//21 30//21 29//21
f 29//22 30//22 26//22 25//22
f 27//23 31//23 29//23 25//23
f 32//24 28//24 26//24 30//24
o WALL_EXT_North
v 0.000000 39.750000 0.139086
v 0.000000 39.750000 6.139086
v 0.000000 40.000000 0.139086
v 0.000000 40.000000 6.139086
v 60.000000 39.750000 0.139086
v 60.000000 39.750000 6.139086
v 60.000000 40.000000 0.139086
v 60.000000 40.000000 6.139086
v 2.500000 40.000000 4.389085
v 2.500000 40.000000 5.889085
v 5.500000 40.000000 5.889085
v 5.500000 40.000000 4.389085
v 5.500000 39.750000 5.889085
v 2.500000 39.750000 4.389085
v 2.500000 39.750000 5.889085
v 5.500000 39.750000 4.389085
v 8.500000 40.000000 4.389085
v 11.500000 40.000000 4.389085
v 11.500000 40.000000 5.889085
v 8.500000 40.000000 5.889085
v 8.500000 39.750000 4.389085
v 11.500000 39.750000 4.389085
v 8.500000 39.750000 5.889085
v 11.500000 39.750000 5.889085
v 14.500000 40.000000 4.389085
v 17.500000 40.000000 4.389085
v 17.500000 40.000000 5.889085
v 14.500000 40.000000 5.889085
v 14.500000 39.750000 4.389085
v 17.500000 39.750000 4.389085
v 14.500000 39.750000 5.889085
v 17.500000 39.750000 5.889085
vn -1.0000 -0.0000 -0.0000
vn -0.0000 1.0000 -0.0000
vn 1.0000 -0.0000 -0.0000
vn -0.0000 -1.0000 -0.0000
vn -0.0000 -0.0000 -1.0000
vn -0.0000 -0.0000 1.0000
s 0
usemtl MAT_ConcreteWall
f 33//25 34//25 36//25 35//25
f 36//26 42//26 41//26 35//26
f 36//26 40//26 39//26 35//26 41//26 44//26 49//26 50//26 57//26 58//26 59//26 60//26 51//26 52//26 43//26 42//26
f 57//26 50//26 51//26 60//26
f 49//26 44//26 43//26 52//26
f 39//27 40//27 38//27 37//27
f 47//28 34//28 33//28 46//28
f 48//28 46//28 33//28 37//28 38//28 34//28 47//28 45//28 55//28 56//28 63//28 64//28 62//28 61//28 54//28 53//28
f 63//28 56//28 54//28 61//28
f 55//28 45//28 48//28 53//28
f 35//29 39//29 37//29 33//29
f 40//30 36//30 34//30 38//30
f 46//27 41//27 42//27 47//27
f 45//25 43//25 44//25 48//25
f 48//30 44//30 41//30 46//30
f 42//29 43//29 45//29 47//29
usemtl MAT_WindowGlass
f 49//27 52//27 55//27 53//27
f 56//25 51//25 50//25 54//25
f 54//30 50//30 49//30 53//30
f 52//29 51//29 56//29 55//29
f 57//27 60//27 63//27 61//27
f 64//25 59//25 58//25 62//25
f 62//30 58//30 57//30 61//30
f 60//29 59//29 64//29 63//29
o WALL_EXT_West_S
v 0.000000 0.000000 0.139086
v 0.000000 0.000000 6.139086
v 0.000000 19.250000 0.139086
v 0.000000 19.250000 6.139086
v 0.250000 0.000000 0.139086
v 0.250000 0.000000 6.139086
v 0.250000 19.250000 0.139086
v 0.250000 19.250000 6.139086
vn -1.0000 -0.0000 -0.0000
vn -0.0000 1.0000 -0.0000
vn 1.0000 -0.0000 -0.0000
vn -0.0000 -1.0000 -0.0000
vn -0.0000 -0.0000 -1.0000
vn -0.0000 -0.0000 1.0000
s 0
usemtl MAT_ConcreteWall
f 65//31 66//31 68//31 67//31
f 67//32 68//32 72//32 71//32
f 71//33 72//33 70//33 69//33
f 69//34 70//34 66//34 65//34
f 67//35 71//35 69//35 65//35
f 72//36 68//36 66//36 70//36
o WALL_EXT_West_DoorLintel_D12
v 0.000000 19.250000 2.939085
v 0.000000 19.250000 6.139085
v 0.000000 22.250000 2.939085
v 0.000000 22.250000 6.139085
v 0.250000 19.250000 2.939085
v 0.250000 19.250000 6.139085
v 0.250000 22.250000 2.939085
v 0.250000 22.250000 6.139085
vn -1.0000 -0.0000 -0.0000
vn -0.0000 1.0000 -0.0000
vn 1.0000 -0.0000 -0.0000
vn -0.0000 -1.0000 -0.0000
vn -0.0000 -0.0000 -1.0000
vn -0.0000 -0.0000 1.0000
s 0
usemtl MAT_ConcreteWall
f 73//37 74//37 76//37 75//37
f 75//38 76//38 80//38 79//38
f 79//39 80//39 78//39 77//39
f 77//40 78//40 74//40 73//40
f 75//41 79//41 77//41 73//41
f 80//42 76//42 74//42 78//42
o WALL_EXT_West_N
v 0.000000 22.250000 0.139086
v 0.000000 22.250000 6.139086
v 0.000000 40.000000 0.139086
v 0.000000 40.000000 6.139086
v 0.250000 22.250000 0.139086
v 0.250000 22.250000 6.139086
v 0.250000 40.000000 0.139086
v 0.250000 40.000000 6.139086
vn -1.0000 -0.0000 -0.0000
vn -0.0000 1.0000 -0.0000
vn 1.0000 -0.0000 -0.0000
vn -0.0000 -1.0000 -0.0000
vn -0.0000 -0.0000 -1.0000
vn -0.0000 -0.0000 1.0000
s 0
usemtl MAT_ConcreteWall
f 81//43 82//43 84//43 83//43
f 83//44 84//44 88//44 87//44
f 87//45 88//45 86//45 85//45
f 85//46 86//46 82//46 81//46
f 83//47 87//47 85//47 81//47
f 88//48 84//48 82//48 86//48
o WALL_EXT_East_S
v 59.750000 0.000000 0.139086
v 59.750000 0.000000 6.139086
v 59.750000 19.250000 0.139086
v 59.750000 19.250000 6.139086
v 60.000000 0.000000 0.139086
v 60.000000 0.000000 6.139086
v 60.000000 19.250000 0.139086
v 60.000000 19.250000 6.139086
vn -1.0000 -0.0000 -0.0000
vn -0.0000 1.0000 -0.0000
vn 1.0000 -0.0000 -0.0000
vn -0.0000 -1.0000 -0.0000
vn -0.0000 -0.0000 -1.0000
vn -0.0000 -0.0000 1.0000
s 0
usemtl MAT_ConcreteWall
f 89//49 90//49 92//49 91//49
f 91//50 92//50 96//50 95//50
f 95//51 96//51 94//51 93//51
f 93//52 94//52 90//52 89//52
f 91//53 95//53 93//53 89//53
f 96//54 92//54 90//54 94//54
o WALL_EXT_East_DoorLintel_D11
v 59.750000 19.250000 2.939085
v 59.750000 19.250000 6.139085
v 59.750000 22.250000 2.939085
v 59.750000 22.250000 6.139085
v 60.000000 19.250000 2.939085
v 60.000000 19.250000 6.139085
v 60.000000 22.250000 2.939085
v 60.000000 22.250000 6.139085
vn -1.0000 -0.0000 -0.0000
vn -0.0000 1.0000 -0.0000
vn 1.0000 -0.0000 -0.0000
vn -0.0000 -1.0000 -0.0000
vn -0.0000 -0.0000 -1.0000
vn -0.0000 -0.0000 1.0000
s 0
usemtl MAT_ConcreteWall
f 97//55 98//55 100//55 99//55
f 99//56 100//56 104//56 103//56
f 103//57 104//57 102//57 101//57
f 101//58 102//58 98//58 97//58
f 99//59 103//59 101//59 97//59
f 104//60 100//60 98//60 102//60
o WALL_EXT_East_N
v 59.750000 22.250000 0.139086
v 59.750000 22.250000 6.139086
v 59.750000 40.000000 0.139086
v 59.750000 40.000000 6.139086
v 60.000000 22.250000 0.139086
v 60.000000 22.250000 6.139086
v 60.000000 40.000000 0.139086
v 60.000000 40.000000 6.139086
vn -1.0000 -0.0000 -0.0000
vn -0.0000 1.0000 -0.0000
vn 1.0000 -0.0000 -0.0000
vn -0.0000 -1.0000 -0.0000
vn -0.0000 -0.0000 -1.0000
vn -0.0000 -0.0000 1.0000
s 0
usemtl MAT_ConcreteWall
f 105//61 106//61 108//61 107//61
f 107//62 108//62 112//62 111//62
f 111//63 112//63 110//63 109//63
f 109//64 110//64 106//64 105//64
f 107//65 111//65 109//65 105//65
f 112//66 108//66 106//66 110//66
